<svg width="0" height="0" class="hidden">
  <symbol xmlns="http://www.w3.org/2000/svg" viewBox="0 0 512 512" id="add">
    <title>add</title>
    <path d="M368.5 240H272v-96.5c0-8.8-7.2-16-16-16s-16 7.2-16 16V240h-96.5c-8.8 0-16 7.2-16 16 0 4.4 1.8 8.4 4.7 11.3 2.9 2.9 6.9 4.7 11.3 4.7H240v96.5c0 4.4 1.8 8.4 4.7 11.3 2.9 2.9 6.9 4.7 11.3 4.7 8.8 0 16-7.2 16-16V272h96.5c8.8 0 16-7.2 16-16s-7.2-16-16-16z"></path>
  </symbol>

  <symbol xmlns="http://www.w3.org/2000/svg" viewBox="0 0 512 512" id="checkmark-circle">
    <title>checkmark-circle</title>
    <path d="M256 48C141.31 48 48 141.31 48 256s93.31 208 208 208 208-93.31 208-208S370.69 48 256 48zm108.25 138.29l-134.4 160a16 16 0 0 1-12 5.71h-.27a16 16 0 0 1-11.89-5.3l-57.6-64a16 16 0 1 1 23.78-21.4l45.29 50.32 122.59-145.91a16 16 0 0 1 24.5 20.58z"></path>
  </symbol>

  <symbol xmlns="http://www.w3.org/2000/svg" viewBox="0 0 512 512" id="checkmark">
    <title>checkmark</title>
    <path fill="none" stroke="#000" stroke-linecap="round" stroke-linejoin="round" stroke-width="32" d="M416 128L192 384l-96-96"></path>
  </symbol>

  <symbol xmlns="http://www.w3.org/2000/svg" viewBox="0 0 512 512" id="arrow-back">
    <title>arrow-back</title>
    <path fill="none"  stroke-linecap="round" stroke-linejoin="round" stroke-width="48" d="M328 112L184 256l144 144"></path>
  </symbol>

  <symbol xmlns="http://www.w3.org/2000/svg" viewBox="0 0 512 512" id="images">
    <title>images</title>
    <path d="M450.29 112H142c-34 0-62 27.51-62 61.33v245.34c0 33.82 28 61.33 62 61.33h308c34 0 62-26.18 62-60V173.33c0-33.82-27.68-61.33-61.71-61.33zm-77.15 61.34a46 46 0 1 1-46.28 46 46.19 46.19 0 0 1 46.28-46.01zm-231.55 276c-17 0-29.86-13.75-29.86-30.66v-64.83l90.46-80.79a46.54 46.54 0 0 1 63.44 1.83L328.27 337l-113 112.33zM480 418.67a30.67 30.67 0 0 1-30.71 30.66H259L376.08 333a46.24 46.24 0 0 1 59.44-.16L480 370.59z"></path>
    <path d="M384 32H64A64 64 0 0 0 0 96v256a64.11 64.11 0 0 0 48 62V152a72 72 0 0 1 72-72h326a64.11 64.11 0 0 0-62-48z"></path>
  </symbol>

  <symbol xmlns="http://www.w3.org/2000/svg" viewBox="0 0 512 512" id="imgs">
    <title>imgs</title>
    <path d="M104 160a56 56 0 1 1 56-56 56.06 56.06 0 0 1-56 56zm152 0a56 56 0 1 1 56-56 56.06 56.06 0 0 1-56 56zm152 0a56 56 0 1 1 56-56 56.06 56.06 0 0 1-56 56zM104 312a56 56 0 1 1 56-56 56.06 56.06 0 0 1-56 56zm152 0a56 56 0 1 1 56-56 56.06 56.06 0 0 1-56 56zm152 0a56 56 0 1 1 56-56 56.06 56.06 0 0 1-56 56zM104 464a56 56 0 1 1 56-56 56.06 56.06 0 0 1-56 56zm152 0a56 56 0 1 1 56-56 56.06 56.06 0 0 1-56 56zm152 0a56 56 0 1 1 56-56 56.06 56.06 0 0 1-56 56z"></path>
  </symbol>

   <symbol xmlns="http://www.w3.org/2000/svg" viewBox="0 0 512 512" id="arrow-forward">
    <title>arrow-forward</title>
    <path fill="none"  stroke-linecap="round" stroke-linejoin="round" stroke-width="48" d="M184 112l144 144-144 144"></path>
  </symbol>

  <symbol xmlns="http://www.w3.org/2000/svg" viewBox="0 0 512 512" id="arrow-down">
    <title>arrow-down</title>
    <path fill="none" stroke="#fff" stroke-linecap="round" stroke-linejoin="round" stroke-width="48" d="M112 184l144 144 144-144"></path>
  </symbol>

  <symbol xmlns="http://www.w3.org/2000/svg"  id="arrow-back" viewBox="0 0 512 512">
    <title>i-arrow-back</title>
    <path d="M217.9 256L345 129c9.4-9.4 9.4-24.6 0-33.9-9.4-9.4-24.6-9.3-34 0L167 239c-9.1 9.1-9.3 23.7-.7 33.1L310.9 417c4.7 4.7 10.9 7 17 7s12.3-2.3 17-7c9.4-9.4 9.4-24.6 0-33.9L217.9 256z"/>
  </symbol>

  <symbol xmlns="http://www.w3.org/2000/svg" viewBox="0 0 512 512" id="image">
    <title>image</title>
    <path d="M416 64H96a64.07 64.07 0 0 0-64 64v256a64.07 64.07 0 0 0 64 64h320a64.07 64.07 0 0 0 64-64V128a64.07 64.07 0 0 0-64-64zm-80 64a48 48 0 1 1-48 48 48.05 48.05 0 0 1 48-48zM96 416a32 32 0 0 1-32-32v-67.63l94.84-84.3a48.06 48.06 0 0 1 65.8 1.9l64.95 64.81L172.37 416zm352-32a32 32 0 0 1-32 32H217.63l121.42-121.42a47.72 47.72 0 0 1 61.64-.16L448 333.84z"></path>
  </symbol>

  <symbol xmlns="http://www.w3.org/2000/svg"  id="arrow-forward" viewBox="0 0 512 512">
    <title>i-arrow-forward</title>
    <path d="M294.1 256L167 129c-9.4-9.4-9.4-24.6 0-33.9s24.6-9.3 34 0L345 239c9.1 9.1 9.3 23.7.7 33.1L201.1 417c-4.7 4.7-10.9 7-17 7s-12.3-2.3-17-7c-9.4-9.4-9.4-24.6 0-33.9l127-127.1z"/>
  </symbol>

  <symbol xmlns="http://www.w3.org/2000/svg" viewBox="0 0 512 512" id="checkmark-done">
    <title>checkmark-done</title>
    <path d="M258.9 48C141.92 46.42 46.42 141.92 48 258.9c1.56 112.19 92.91 203.54 205.1 205.1 117 1.6 212.48-93.9 210.88-210.88C462.44 140.91 371.09 49.56 258.9 48zm-16.79 192.47l51.55-59a16 16 0 0 1 24.1 21.06l-51.55 59a16 16 0 1 1-24.1-21.06zm-38.86 90.85a16 16 0 0 1-22.62 0l-47.95-48a16 16 0 1 1 22.64-22.62l48 48a16 16 0 0 1-.07 22.62zm176.8-128.79l-111.88 128a16 16 0 0 1-11.51 5.47h-.54a16 16 0 0 1-11.32-4.69l-47.94-48a16 16 0 1 1 22.64-22.62l29.8 29.83a8 8 0 0 0 11.68-.39l95-108.66a16 16 0 0 1 24.1 21.06z"></path>
  </symbol>

  <symbol fill="none" xmlns="http://www.w3.org/2000/svg" viewBox="0 0 15 15" id="home">
    <path fill-rule="evenodd" clip-rule="evenodd" d="M7.07926 0.222253C7.31275 -0.007434 7.6873 -0.007434 7.92079 0.222253L14.6708 6.86227C14.907 7.09465 14.9101 7.47453 14.6778 7.71076C14.4454 7.947 14.0655 7.95012 13.8293 7.71773L13 6.90201V12.5C13 12.7761 12.7762 13 12.5 13H2.50002C2.22388 13 2.00002 12.7761 2.00002 12.5V6.90201L1.17079 7.71773C0.934558 7.95012 0.554672 7.947 0.32229 7.71076C0.0899079 7.47453 0.0930283 7.09465 0.32926 6.86227L7.07926 0.222253ZM7.50002 1.49163L12 5.91831V12H10V8.49999C10 8.22385 9.77617 7.99999 9.50002 7.99999H6.50002C6.22388 7.99999 6.00002 8.22385 6.00002 8.49999V12H3.00002V5.91831L7.50002 1.49163ZM7.00002 12H9.00002V8.99999H7.00002V12Z" fill="currentColor"></path>
  </symbol>
</svg>