<svg width="0" height="0" class="hidden">
  <symbol xmlns="http://www.w3.org/2000/svg" viewBox="0 0 512 512" id="add">
    <title>add</title>
    <path d="M368.5 240H272v-96.5c0-8.8-7.2-16-16-16s-16 7.2-16 16V240h-96.5c-8.8 0-16 7.2-16 16 0 4.4 1.8 8.4 4.7 11.3 2.9 2.9 6.9 4.7 11.3 4.7H240v96.5c0 4.4 1.8 8.4 4.7 11.3 2.9 2.9 6.9 4.7 11.3 4.7 8.8 0 16-7.2 16-16V272h96.5c8.8 0 16-7.2 16-16s-7.2-16-16-16z"></path>
  </symbol>

  <symbol xmlns="http://www.w3.org/2000/svg" viewBox="0 0 512 512" id="checkmark-circle">
    <title>checkmark-circle</title>
    <path d="M256 48C141.31 48 48 141.31 48 256s93.31 208 208 208 208-93.31 208-208S370.69 48 256 48zm108.25 138.29l-134.4 160a16 16 0 0 1-12 5.71h-.27a16 16 0 0 1-11.89-5.3l-57.6-64a16 16 0 1 1 23.78-21.4l45.29 50.32 122.59-145.91a16 16 0 0 1 24.5 20.58z"></path>
  </symbol>

  <symbol xmlns="http://www.w3.org/2000/svg" viewBox="0 0 512 512" id="checkmark">
    <title>checkmark</title>
    <path fill="none" stroke="#000" stroke-linecap="round" stroke-linejoin="round" stroke-width="32" d="M416 128L192 384l-96-96"></path>
  </symbol>

  <symbol xmlns="http://www.w3.org/2000/svg" viewBox="0 0 512 512" id="arrow-back">
    <title>arrow-back</title>
    <path fill="none"  stroke-linecap="round" stroke-linejoin="round" stroke-width="48" d="M328 112L184 256l144 144"></path>
  </symbol>

  <symbol xmlns="http://www.w3.org/2000/svg" viewBox="0 0 512 512" id="images">
    <title>images</title>
    <path d="M450.29 112H142c-34 0-62 27.51-62 61.33v245.34c0 33.82 28 61.33 62 61.33h308c34 0 62-26.18 62-60V173.33c0-33.82-27.68-61.33-61.71-61.33zm-77.15 61.34a46 46 0 1 1-46.28 46 46.19 46.19 0 0 1 46.28-46.01zm-231.55 276c-17 0-29.86-13.75-29.86-30.66v-64.83l90.46-80.79a46.54 46.54 0 0 1 63.44 1.83L328.27 337l-113 112.33zM480 418.67a30.67 30.67 0 0 1-30.71 30.66H259L376.08 333a46.24 46.24 0 0 1 59.44-.16L480 370.59z"></path>
    <path d="M384 32H64A64 64 0 0 0 0 96v256a64.11 64.11 0 0 0 48 62V152a72 72 0 0 1 72-72h326a64.11 64.11 0 0 0-62-48z"></path>
  </symbol>

  <symbol xmlns="http://www.w3.org/2000/svg" viewBox="0 0 512 512" id="imgs">
    <title>imgs</title>
    <path d="M104 160a56 56 0 1 1 56-56 56.06 56.06 0 0 1-56 56zm152 0a56 56 0 1 1 56-56 56.06 56.06 0 0 1-56 56zm152 0a56 56 0 1 1 56-56 56.06 56.06 0 0 1-56 56zM104 312a56 56 0 1 1 56-56 56.06 56.06 0 0 1-56 56zm152 0a56 56 0 1 1 56-56 56.06 56.06 0 0 1-56 56zm152 0a56 56 0 1 1 56-56 56.06 56.06 0 0 1-56 56zM104 464a56 56 0 1 1 56-56 56.06 56.06 0 0 1-56 56zm152 0a56 56 0 1 1 56-56 56.06 56.06 0 0 1-56 56zm152 0a56 56 0 1 1 56-56 56.06 56.06 0 0 1-56 56z"></path>
  </symbol>

   <symbol xmlns="http://www.w3.org/2000/svg" viewBox="0 0 512 512" id="arrow-forward">
    <title>arrow-forward</title>
    <path fill="none"  stroke-linecap="round" stroke-linejoin="round" stroke-width="48" d="M184 112l144 144-144 144"></path>
  </symbol>

  <symbol xmlns="http://www.w3.org/2000/svg" viewBox="0 0 512 512" id="arrow-down">
    <title>arrow-down</title>
    <path fill="none" stroke="#fff" stroke-linecap="round" stroke-linejoin="round" stroke-width="48" d="M112 184l144 144 144-144"></path>
  </symbol>

  <symbol xmlns="http://www.w3.org/2000/svg"  id="arrow-back" viewBox="0 0 512 512">
    <title>i-arrow-back</title>
    <path d="M217.9 256L345 129c9.4-9.4 9.4-24.6 0-33.9-9.4-9.4-24.6-9.3-34 0L167 239c-9.1 9.1-9.3 23.7-.7 33.1L310.9 417c4.7 4.7 10.9 7 17 7s12.3-2.3 17-7c9.4-9.4 9.4-24.6 0-33.9L217.9 256z"/>
  </symbol>

  <symbol xmlns="http://www.w3.org/2000/svg" viewBox="0 0 512 512" id="image">
    <title>image</title>
    <path d="M416 64H96a64.07 64.07 0 0 0-64 64v256a64.07 64.07 0 0 0 64 64h320a64.07 64.07 0 0 0 64-64V128a64.07 64.07 0 0 0-64-64zm-80 64a48 48 0 1 1-48 48 48.05 48.05 0 0 1 48-48zM96 416a32 32 0 0 1-32-32v-67.63l94.84-84.3a48.06 48.06 0 0 1 65.8 1.9l64.95 64.81L172.37 416zm352-32a32 32 0 0 1-32 32H217.63l121.42-121.42a47.72 47.72 0 0 1 61.64-.16L448 333.84z"></path>
  </symbol>

  <symbol xmlns="http://www.w3.org/2000/svg"  id="arrow-forward" viewBox="0 0 512 512">
    <title>i-arrow-forward</title>
    <path d="M294.1 256L167 129c-9.4-9.4-9.4-24.6 0-33.9s24.6-9.3 34 0L345 239c9.1 9.1 9.3 23.7.7 33.1L201.1 417c-4.7 4.7-10.9 7-17 7s-12.3-2.3-17-7c-9.4-9.4-9.4-24.6 0-33.9l127-127.1z"/>
  </symbol>

  <symbol xmlns="http://www.w3.org/2000/svg" viewBox="0 0 512 512" id="checkmark-done">
    <title>checkmark-done</title>
    <path d="M258.9 48C141.92 46.42 46.42 141.92 48 258.9c1.56 112.19 92.91 203.54 205.1 205.1 117 1.6 212.48-93.9 210.88-210.88C462.44 140.91 371.09 49.56 258.9 48zm-16.79 192.47l51.55-59a16 16 0 0 1 24.1 21.06l-51.55 59a16 16 0 1 1-24.1-21.06zm-38.86 90.85a16 16 0 0 1-22.62 0l-47.95-48a16 16 0 1 1 22.64-22.62l48 48a16 16 0 0 1-.07 22.62zm176.8-128.79l-111.88 128a16 16 0 0 1-11.51 5.47h-.54a16 16 0 0 1-11.32-4.69l-47.94-48a16 16 0 1 1 22.64-22.62l29.8 29.83a8 8 0 0 0 11.68-.39l95-108.66a16 16 0 0 1 24.1 21.06z"></path>
  </symbol>

  <symbol fill="none" xmlns="http://www.w3.org/2000/svg" viewBox="0 0 15 15" id="home">
    <path fill-rule="evenodd" clip-rule="evenodd" d="M7.07926 0.222253C7.31275 -0.007434 7.6873 -0.007434 7.92079 0.222253L14.6708 6.86227C14.907 7.09465 14.9101 7.47453 14.6778 7.71076C14.4454 7.947 14.0655 7.95012 13.8293 7.71773L13 6.90201V12.5C13 12.7761 12.7762 13 12.5 13H2.50002C2.22388 13 2.00002 12.7761 2.00002 12.5V6.90201L1.17079 7.71773C0.934558 7.95012 0.554672 7.947 0.32229 7.71076C0.0899079 7.47453 0.0930283 7.09465 0.32926 6.86227L7.07926 0.222253ZM7.50002 1.49163L12 5.91831V12H10V8.49999C10 8.22385 9.77617 7.99999 9.50002 7.99999H6.50002C6.22388 7.99999 6.00002 8.22385 6.00002 8.49999V12H3.00002V5.91831L7.50002 1.49163ZM7.00002 12H9.00002V8.99999H7.00002V12Z" fill="currentColor"></path>
  </symbol>

  <symbol fill="none" xmlns="http://www.w3.org/2000/svg" viewBox="0 0 15 15" id="archive">
    <path fill-rule="evenodd" clip-rule="evenodd" d="M3.30902 1C2.93025 1 2.58398 1.214 2.41459 1.55279L1.05279 4.27639C1.01807 4.34582 1 4.42238 1 4.5V13C1 13.5523 1.44772 14 2 14H13C13.5523 14 14 13.5523 14 13V4.5C14 4.42238 13.9819 4.34582 13.9472 4.27639L12.5854 1.55281C12.416 1.21403 12.0698 1.00003 11.691 1.00003L7.5 1.00001L3.30902 1ZM3.30902 2L7 2.00001V4H2.30902L3.30902 2ZM8 4V2.00002L11.691 2.00003L12.691 4H8ZM7.5 5H13V13H2V5H7.5ZM5.5 7C5.22386 7 5 7.22386 5 7.5C5 7.77614 5.22386 8 5.5 8H9.5C9.77614 8 10 7.77614 10 7.5C10 7.22386 9.77614 7 9.5 7H5.5Z" fill="currentColor"></path>
  </symbol>
  <symbol xmlns="http://www.w3.org/2000/svg" viewBox="0 0 15 15" id="plus-circled">
    <path fill-rule="evenodd" clip-rule="evenodd" d="M7.49991 0.876892C3.84222 0.876892 0.877075 3.84204 0.877075 7.49972C0.877075 11.1574 3.84222 14.1226 7.49991 14.1226C11.1576 14.1226 14.1227 11.1574 14.1227 7.49972C14.1227 3.84204 11.1576 0.876892 7.49991 0.876892ZM1.82707 7.49972C1.82707 4.36671 4.36689 1.82689 7.49991 1.82689C10.6329 1.82689 13.1727 4.36671 13.1727 7.49972C13.1727 10.6327 10.6329 13.1726 7.49991 13.1726C4.36689 13.1726 1.82707 10.6327 1.82707 7.49972ZM7.50003 4C7.77617 4 8.00003 4.22386 8.00003 4.5V7H10.5C10.7762 7 11 7.22386 11 7.5C11 7.77614 10.7762 8 10.5 8H8.00003V10.5C8.00003 10.7761 7.77617 11 7.50003 11C7.22389 11 7.00003 10.7761 7.00003 10.5V8H4.50003C4.22389 8 4.00003 7.77614 4.00003 7.5C4.00003 7.22386 4.22389 7 4.50003 7H7.00003V4.5C7.00003 4.22386 7.22389 4 7.50003 4Z"></path>
  </symbol>
  <symbol xmlns="http://www.w3.org/2000/svg" viewBox="0 0 15 15" id="trash">
    <path fill-rule="evenodd" clip-rule="evenodd" d="M5.5 1C5.22386 1 5 1.22386 5 1.5C5 1.77614 5.22386 2 5.5 2H9.5C9.77614 2 10 1.77614 10 1.5C10 1.22386 9.77614 1 9.5 1H5.5ZM3 3.5C3 3.22386 3.22386 3 3.5 3H5H10H11.5C11.7761 3 12 3.22386 12 3.5C12 3.77614 11.7761 4 11.5 4H11V12C11 12.5523 10.5523 13 10 13H5C4.44772 13 4 12.5523 4 12V4L3.5 4C3.22386 4 3 3.77614 3 3.5ZM5 4H10V12H5V4Z"></path>
  </symbol>
  <symbol xmlns="http://www.w3.org/2000/svg" viewBox="0 0 15 15" id="file">
    <path fill-rule="evenodd" clip-rule="evenodd" d="M3.5 2C3.22386 2 3 2.22386 3 2.5V12.5C3 12.7761 3.22386 13 3.5 13H11.5C11.7761 13 12 12.7761 12 12.5V6H8.5C8.22386 6 8 5.77614 8 5.5V2H3.5ZM9 2.70711L11.2929 5H9V2.70711ZM2 2.5C2 1.67157 2.67157 1 3.5 1H8.5C8.63261 1 8.75979 1.05268 8.85355 1.14645L12.8536 5.14645C12.9473 5.24021 13 5.36739 13 5.5V12.5C13 13.3284 12.3284 14 11.5 14H3.5C2.67157 14 2 13.3284 2 12.5V2.5Z"></path>
  </symbol>
</svg>